<svg width="30" height="30" viewBox="0 0 30 30" fill="none" xmlns="http://www.w3.org/2000/svg">
<path fill-rule="evenodd" clip-rule="evenodd" d="M26 21.9997V23.9999C26 24.5468 25.5846 25 25.0833 25H4.91667C4.41536 25 4 24.5468 4 23.9999V21.9997C4 21.4528 4.41536 20.9997 4.91667 20.9997H25.0833C25.5846 20.9997 26 21.4528 26 21.9997ZM26 13.9999V16.0001C26 16.547 25.5846 17.0002 25.0833 17.0002H4.91667C4.41536 17.0002 4 16.547 4 16.0001V13.9999C4 13.453 4.41536 12.9998 4.91667 12.9998H25.0833C25.5846 12.9998 26 13.453 26 13.9999ZM26 6.00009V8.00026C26 8.54718 25.5846 9.00035 25.0833 9.00035H4.91667C4.41536 9.00035 4 8.54718 4 8.00026V6.00009C4 5.45316 4.41536 5 4.91667 5H25.0833C25.5846 5 26 5.45316 26 6.00009Z" fill="#686F7D"/>
</svg>
