<svg width="165" height="82" viewBox="0 0 165 82" fill="none" xmlns="http://www.w3.org/2000/svg">
<path fill-rule="evenodd" clip-rule="evenodd" d="M17.4177 20.214C18.2042 20.6689 19.1 20.9003 20.0084 20.8833C20.076 20.8834 20.1437 20.8825 20.2112 20.8805C19.3307 22.0881 18.8 23.5278 18.6959 25.0396C18.7492 25.8854 19.0015 26.7067 19.4323 27.4366C19.8631 28.1664 20.4602 28.7842 21.175 29.2396C22.5449 30.0547 24.1022 30.5018 25.6959 30.5375C26.3785 30.5398 27.0573 30.4365 27.7084 30.2313C27.8921 30.1641 28.0732 30.0907 28.2514 30.0114C29.0332 30.7559 31.5957 33.0021 34.1688 33.0021C33.6458 33.9979 32.7887 34.7776 31.748 35.2041C30.7311 35.6658 29.6272 35.9047 28.5105 35.9047C27.3937 35.9047 26.2898 35.6658 25.273 35.2041C24.7488 34.9217 24.2594 34.5791 23.8146 34.1833C23.1292 33.5854 22.8521 33.3666 18.4771 32.1271C17.4963 31.9592 16.5715 31.5538 15.7835 30.9462C14.9955 30.3387 14.3681 29.5475 13.9563 28.6416C13.7309 27.8691 13.6913 27.0542 13.8408 26.2635C13.9904 25.4727 14.3247 24.7285 14.8167 24.0916C15.7614 22.8497 16.5682 21.5098 17.2235 20.0956C17.2872 20.1365 17.352 20.1759 17.4177 20.214ZM16.0846 19.091C15.881 18.8469 15.7004 18.5828 15.5459 18.3021C12.9209 13.9271 14.5834 10.7771 16.7854 9.4354C18.9875 8.09373 21.5542 6.51873 22.2396 5.4104C22.2462 5.40274 22.265 5.37417 22.2954 5.32785C22.671 4.75655 24.8216 1.48529 27.7084 1.45831C29.5167 1.45831 31.1209 2.6104 32.55 4.92915C32.9789 5.63088 33.3491 6.26096 33.665 6.8194C34.2266 6.3096 34.8802 5.90617 35.5942 5.63252C36.6404 5.2315 37.7765 5.12444 38.8792 5.32294H38.9813L39.375 5.30835C39.6017 5.30835 44.8939 7.05648 45.6631 12.4115C45.9723 12.584 46.2605 12.794 46.5209 13.0375C50.8959 16.6687 49.1896 21.8604 47.4834 24.3541C47.0936 24.8441 46.8522 25.4354 46.7876 26.0582C46.723 26.6809 46.8379 27.3092 47.1188 27.8687L47.1191 27.8694C47.2068 28.0594 47.4092 28.4979 46.4188 30.2021C45.6372 31.6105 44.5175 32.8025 43.1606 33.6706C41.8037 34.5387 40.2523 35.0557 38.6459 35.175C38.0098 35.2731 37.3596 35.2242 36.7454 35.0321C36.4917 34.9528 36.247 34.8499 36.0142 34.7253C36.47 38.5325 38.3075 42.653 45.1247 48.1044C43.9774 44.5486 42.5028 38.2355 45.5 35.9333C45.8355 35.6708 46.7396 34.9854 47.5417 35.4521C48.3438 35.9187 48.3 37.8146 47.8188 41.0229C47.2252 43.9311 47.0741 46.9118 47.3703 49.8642C49.1998 51.3872 50.805 53.1555 52.1417 55.116C47.2546 40.9065 60.6417 34.5042 60.7834 34.5042C60.7925 34.4998 60.8016 34.4957 60.8109 34.4917L60.8288 34.4844C60.9005 34.3827 61.0048 34.3077 61.1252 34.2722C61.2642 34.2313 61.4137 34.2465 61.5417 34.3146C61.6046 34.3455 61.6606 34.3887 61.7065 34.4416C61.7524 34.4945 61.7872 34.5561 61.809 34.6227C61.8307 34.6893 61.8389 34.7595 61.8331 34.8293C61.8289 34.88 61.8173 34.9298 61.7988 34.977L61.8011 34.9863L61.8042 35C61.8917 35.3354 63.7 43.5021 59.2229 48.6354C57.2782 51.1131 55.5186 53.7306 53.9584 56.4667C53.9264 56.523 53.8872 56.5745 53.842 56.62C53.822 57.0785 53.8217 57.5376 53.841 57.9961C53.8805 58.0742 53.9196 58.1526 53.9583 58.2313C55.1617 60.5839 55.9375 63.1288 56.2524 65.7472C56.2998 66.0595 56.3372 66.3738 56.3646 66.6896C56.3685 66.7853 56.3535 66.8809 56.3204 66.9709C56.2874 67.0609 56.2369 67.1434 56.1719 67.2139C56.1068 67.2843 56.0286 67.3412 55.9415 67.3814C55.8545 67.4215 55.7604 67.4442 55.6646 67.4479L55.6355 67.4917C55.447 67.4918 55.2658 67.419 55.1299 67.2885C54.994 67.158 54.9138 66.9799 54.9063 66.7917L54.9062 66.7917C54.9061 66.7904 54.906 66.7891 54.9059 66.7878C54.7235 64.9604 54.1722 63.1891 53.2854 61.5809C52.398 59.9715 51.1931 58.5591 49.7438 57.4292C47.4142 58.6918 44.8185 59.3844 42.1696 59.4503C39.5206 59.5162 36.8937 58.9535 34.5042 57.8083H34.3438C34.1504 57.8373 33.9534 57.7883 33.7962 57.6721C33.6389 57.5559 33.5343 57.3819 33.5052 57.1885C33.4762 56.9951 33.5252 56.7981 33.6415 56.6409C33.7577 56.4836 33.9316 56.379 34.125 56.35C35.0146 55.6354 43.2834 51.4937 49.5105 55.4458C50.3023 55.9449 51.0424 56.5163 51.722 57.1511C50.2871 54.7561 48.4449 52.6267 46.2763 50.8605L46.2594 50.8494C46.2198 50.8228 46.1833 50.7923 46.1503 50.7586C45.9366 50.5869 45.7198 50.4187 45.5 50.2542L45.4337 50.204C40.9303 48.7327 37.6836 48.2795 34.9125 48.6938C33.156 49.0367 31.4471 49.59 29.8229 50.3417C28.6271 50.8521 27.2708 51.4063 25.6813 51.9167C24.6734 52.2479 23.6212 52.4249 22.5604 52.4417C20.67 52.4417 18.7276 52.0081 16.904 51.377C16.8496 51.38 16.795 51.3751 16.7417 51.3625C16.6624 51.3349 16.5893 51.2941 16.525 51.2425C14.6528 50.5611 12.9209 49.6851 11.519 48.8775C11.4947 48.8663 11.471 48.8536 11.4479 48.8396C11.4341 48.8311 11.4206 48.8223 11.4075 48.813C9.91891 47.9485 8.81803 47.1711 8.34113 46.8077C8.32405 46.8034 8.30712 46.7985 8.29036 46.7929C8.19876 46.7624 8.1143 46.7136 8.04206 46.6496C7.96983 46.5855 7.91132 46.5075 7.87008 46.4202C7.82883 46.3329 7.80571 46.2381 7.8021 46.1417C7.80135 46.1103 7.80255 46.079 7.80564 46.0481C7.80301 45.9918 7.80666 45.9351 7.81667 45.8792C7.84714 45.7462 7.91359 45.6242 8.00876 45.5264C8.10393 45.4287 8.22414 45.359 8.35626 45.325C9.02709 45.15 24.8646 41.2125 34.9417 47.2208C37.1197 46.9248 39.5507 47.1193 42.5293 47.8489C37.0505 43.0629 35.1148 39.0343 34.5843 34.7283C33.959 35.4279 33.1857 35.9848 32.3167 36.3562C31.0354 36.9429 29.6426 37.2463 28.2334 37.2458C26.9278 37.2822 25.6355 36.9755 24.4855 36.3562C23.8905 36.0176 23.3332 35.6167 22.823 35.1604C22.4 34.7666 22.2396 34.6208 18.0834 33.4396C14.423 32.3896 13.0667 30.45 12.5709 29.0646C12.2812 28.0757 12.228 27.0326 12.4154 26.0193C12.6029 25.0061 13.0258 24.0511 13.65 23.2312C14.6143 21.9464 15.4309 20.5575 16.0846 19.091ZM18.2736 50.2702C19.1539 50.5358 20.0503 50.743 20.9404 50.8623C20.9512 50.8299 20.9613 50.7973 20.9709 50.7646C21.3023 49.6992 21.8669 48.721 22.6236 47.9012C22.9606 47.5361 23.332 47.2065 23.7317 46.9165C22.5548 47.1407 21.4342 47.597 20.4354 48.2587C19.6081 48.8068 18.878 49.4867 18.2736 50.2702ZM25.2292 50.5896C24.3274 50.8756 23.3711 50.99 22.3914 50.9741C22.6983 50.0487 23.2257 49.2102 23.9297 48.532C24.6238 47.8634 25.467 47.3721 26.3877 47.0977C26.6031 47.1185 26.818 47.1401 27.032 47.1627C26.7358 47.5289 26.4993 47.9422 26.3335 48.3875C26.1043 49.0029 26.0172 49.6603 26.0764 50.3108C25.8025 50.4048 25.5206 50.498 25.2292 50.5896ZM28.2834 49.4953L28.2843 49.495L28.2846 49.4949C28.6092 49.3701 28.9263 49.2483 29.2396 49.1313C30.2408 48.7001 31.2608 48.3144 32.2966 47.9753C31.3006 47.7582 30.2397 47.5749 29.1397 47.4204C27.8515 47.8107 27.5594 49.003 27.5128 49.7899C27.7753 49.6906 28.0316 49.5921 28.2834 49.4953ZM20.0507 46.7599C18.7782 47.5256 17.6678 48.5466 16.7945 49.7671C16.3164 49.5869 15.8474 49.3937 15.3913 49.1927C15.8705 48.208 17.2695 47.1876 20.0507 46.7599ZM12.9936 48.017C13.3464 48.2068 13.7154 48.3983 14.098 48.5875C14.3706 47.9952 14.8841 47.3007 15.8512 46.6827C15.2958 46.7563 14.7545 46.9185 14.2481 47.1643C13.7896 47.3869 13.3673 47.6745 12.9936 48.017ZM10.7809 46.732C11.232 46.717 11.7424 46.7022 12.3027 46.6893C12.082 46.8708 11.8733 47.0665 11.6778 47.2754C11.3552 47.0855 11.0551 46.9029 10.7809 46.732ZM54.6748 52.3799C54.5064 52.6443 54.3402 52.9102 54.1763 53.1774C54.1993 53.0383 54.2234 52.8991 54.2486 52.7598L54.6748 52.3799ZM57.3807 48.504C57.6124 48.2003 57.8474 47.8989 58.0854 47.6C58.3573 47.2918 58.6026 46.969 58.8239 46.6349L55.065 49.3528C55.0012 49.5697 54.9394 49.7873 54.8796 50.0052L54.8333 50.225L54.8233 50.2131C54.7563 50.4632 54.6921 50.7138 54.631 50.9647L57.3807 48.504ZM60.2035 43.5024C60.1118 43.8422 60.0055 44.1808 59.8829 44.5157C57.8162 46.0106 56.4845 46.9786 55.6198 47.6132C55.8027 47.0802 55.9952 46.5527 56.1949 46.0327L60.2035 43.5024ZM60.5155 42.0315L56.8687 44.3668C56.9684 44.1318 57.0692 43.8988 57.1707 43.6682L60.6223 41.2257C60.5938 41.4917 60.5585 41.7608 60.5155 42.0315ZM60.7169 39.8108L58.098 41.6647C58.2281 41.3964 58.3583 41.1325 58.4882 40.8736L60.7244 39.3777C60.7235 39.5201 60.7211 39.6645 60.7169 39.8108ZM60.6922 38.0941C60.6697 37.6896 60.6374 37.3156 60.6014 36.9811C60.2702 37.5478 59.9123 38.1783 59.5402 38.8621L60.6922 38.0941ZM58.3616 38.7414C58.6989 38.1132 59.0268 37.5254 59.337 36.9851C59.0101 37.2108 58.659 37.4688 58.2946 37.7597L58.3616 38.7414ZM57.2577 38.6526L57.393 40.6147C57.2246 40.9532 57.0559 41.2998 56.8878 41.6534L56.5411 39.3577C56.7793 39.1093 57.0191 38.8743 57.2577 38.6526ZM55.7183 44.2737C55.8298 44.0064 55.9426 43.7416 56.0565 43.4796L55.5972 40.4312C55.3363 40.7558 55.0823 41.0982 54.8392 41.4586C54.9907 42.0257 55.3409 43.1125 55.7183 44.2737ZM55.0887 45.8557C54.6219 44.4107 54.3062 43.4015 54.0956 42.6891C53.9334 42.9913 53.7799 43.3039 53.637 43.6271C53.7938 44.3194 54.1771 45.7215 54.5022 46.911L54.5024 46.9117L54.5905 47.2339C54.75 46.7698 54.9166 46.31 55.0887 45.8557ZM54.0064 49.0652C53.6181 47.8628 53.2808 46.6449 52.9952 45.4147C52.8697 45.8642 52.7653 46.3304 52.6856 46.8136L53.6435 50.3908C53.756 49.9473 53.8773 49.5051 54.0064 49.0652ZM52.604 50.7597C52.6928 51.5358 52.8432 52.3443 53.0641 53.1858C53.0863 53.0452 53.1097 52.9046 53.1341 52.7639L52.604 50.7597ZM43.9361 11.8762C43.6319 10.881 43.1309 9.95276 42.4587 9.14841C41.5435 8.05325 40.3459 7.22957 38.9959 6.76669H38.6605C37.8041 6.5955 36.9167 6.67039 36.1012 6.98268C35.4436 7.23445 34.8545 7.63224 34.3767 8.14344C35.0841 9.54764 35.3918 10.4177 35.4544 11.0049C35.8662 11.0995 36.2671 11.2413 36.649 11.4284C37.4074 11.8 38.0705 12.3405 38.5875 13.0083C38.9772 13.4179 39.2865 13.8954 39.5009 14.4159C40.1885 13.4492 41.2887 12.272 42.7438 11.9291C43.1382 11.8569 43.5394 11.8394 43.9361 11.8762ZM38.348 16.5271L38.1938 16.8729H38.2962C37.7801 19.4378 34.6419 21.9827 32.942 23.1963C33.0574 20.0484 32.6692 16.2887 29.555 14.9488C30.257 14.1915 32.1601 12.3521 34.2563 12.3521C34.8822 12.3594 35.4978 12.5121 36.0546 12.7981C36.6113 13.0841 37.0941 13.4955 37.4646 14C37.807 14.3555 38.0628 14.7852 38.212 15.2556C38.3424 15.6667 38.3884 16.0991 38.348 16.5271ZM39.7813 16.9157C40.6168 17.0349 41.416 17.3438 42.1167 17.8208C42.6372 18.1111 43.0718 18.5336 43.3766 19.0458C43.6813 19.558 43.8454 20.1416 43.8521 20.7375C43.75 23.1292 40.498 25.4187 39.375 26.0458C38.3043 26.7241 37.5204 27.7727 37.173 28.9916C37.1376 29.0674 37.104 29.1432 37.0709 29.2177C37.0085 29.3584 36.948 29.4948 36.8813 29.6187C36.6901 30.0966 36.3836 30.5198 35.9892 30.8506C35.5949 31.1814 35.1248 31.4095 34.6209 31.5146C32.8825 31.7839 30.7332 30.2754 29.5874 29.2665C30.0436 28.9556 30.47 28.6003 30.8599 28.2048C31.7245 27.3279 32.3892 26.2748 32.8087 25.1178L32.8271 25.1271L32.8321 25.0524L32.8417 25.025C33.9487 24.3112 39.1733 20.8185 39.7813 16.9157ZM34.6033 10.8781L34.6063 10.8646C34.5338 10.8452 34.4579 10.843 34.3844 10.8582C34.3734 10.8605 34.3624 10.8632 34.3516 10.8662C34.4357 10.8683 34.5196 10.8722 34.6033 10.8781ZM33.9511 10.8987C33.8507 10.5187 33.5742 9.73226 32.8125 8.28331C32.5295 7.74999 32.1816 7.13544 31.7807 6.42753L31.7801 6.4264L31.7796 6.42555L31.7766 6.42024C31.6416 6.18185 31.5007 5.93289 31.3542 5.6729C30.2313 3.8354 29.0354 2.90206 27.7959 2.90206C25.4479 2.90206 23.5375 6.1104 23.5229 6.13956C22.6917 7.5104 20.4167 8.93956 17.5 10.6896C15.7792 11.7396 14.6854 14.0875 16.7563 17.5583C17.8813 19.4517 19.6203 19.5437 20.7928 19.3491C20.2382 18.8274 19.846 18.1507 19.6719 17.4006C19.4534 16.4592 19.5942 15.4701 20.0667 14.6271C20.4038 13.9123 20.9087 13.2897 21.5385 12.8123C22.1682 12.3349 22.9041 12.0169 23.6834 11.8854C25.5215 11.8387 27.3036 12.5201 28.6417 13.7812C30.015 12.2184 31.8981 11.1983 33.9511 10.8987ZM22.6274 20.3444L22.6625 20.3291L22.6568 20.3172C22.7614 20.2206 22.8229 20.1688 22.8229 20.1688L23.6104 19.5125L22.7209 18.9875C20.1542 17.4708 21.1459 15.5604 21.2625 15.3417C21.4933 14.826 21.844 14.3729 22.2854 14.0203C22.7268 13.6677 23.2461 13.4257 23.8 13.3146C25.1149 13.1578 26.4194 13.9006 27.2571 14.5246C27.0079 14.5587 26.7617 14.6216 26.5235 14.7133C25.7769 15.0006 25.1611 15.5508 24.7917 16.2604C24.4245 17.0853 24.3531 18.0116 24.5895 18.883C24.826 19.7544 25.3558 20.5176 26.0896 21.0438C27.7958 22.3259 29.6046 23.4652 31.4975 24.4501C31.1645 25.4116 30.6337 26.2934 29.9386 27.0384C29.1995 27.8305 28.2931 28.4479 27.2854 28.8458C25.488 29.2661 23.5978 28.9789 22.0063 28.0438L21.9625 28.0292C21.4407 27.7007 21.002 27.256 20.6807 26.7297C20.3594 26.2035 20.1642 25.6101 20.1104 24.9958C20.0493 22.9186 21.9949 20.9335 22.6274 20.3444ZM27.7083 15.9979C27.3729 15.9759 27.0388 16.0579 26.7517 16.2328C26.4647 16.4077 26.2385 16.6669 26.1042 16.975C25.8969 17.4882 25.8706 18.0568 26.0296 18.587C26.1887 19.1171 26.5236 19.5773 26.9792 19.8917C28.4074 20.9736 29.9135 21.9484 31.4854 22.8083C31.5729 18.7979 30.625 16.7271 28.4521 16.1292C28.2104 16.0555 27.9606 16.0114 27.7083 15.9979ZM36.1959 33.1625C36.0357 32.9647 35.9301 32.7283 35.8896 32.4771C36.8845 31.967 37.6764 31.134 38.1355 30.1146C38.2119 29.9712 38.2821 29.8154 38.3542 29.6552L38.3542 29.6551L38.3543 29.655C38.3922 29.5708 38.4307 29.4854 38.4709 29.4C38.7322 28.5243 39.3021 27.773 40.075 27.2854C40.1188 27.2708 45.0771 24.4562 45.2959 20.7958C45.3075 19.953 45.0982 19.1217 44.6889 18.3849C44.2795 17.648 43.6843 17.0312 42.9625 16.5958C42.2133 16.1088 41.3912 15.7445 40.5271 15.5166C41.0956 14.5276 42.0018 13.7768 43.0792 13.4021C43.5332 13.3273 43.9984 13.361 44.4369 13.5004C44.8754 13.6398 45.2747 13.8809 45.6021 14.2041C50.0063 17.85 46.6813 22.9979 46.2875 23.5667C45.7754 24.2439 45.4528 25.0453 45.3529 25.8885C45.2529 26.7317 45.3792 27.5863 45.7188 28.3646C45.1405 29.835 44.1671 31.1171 42.9061 32.0693C41.6451 33.0214 40.1456 33.6067 38.573 33.7604C38.1569 33.828 37.7314 33.8099 37.3226 33.7071C36.9138 33.6043 36.5304 33.4189 36.1959 33.1625ZM46.7688 36.8375L46.3896 37.0854C44.7271 38.3687 45.048 41.9562 45.8209 45.1646C45.9521 43.7062 46.1709 42.1604 46.375 40.7896C46.6281 39.4872 46.7599 38.1642 46.7688 36.8375ZM42.313 57.9836C40.221 58.0539 38.1374 57.6863 36.1959 56.9042C38.6313 55.8104 44.0709 54.075 48.3438 56.4958C46.4591 57.4065 44.4049 57.9133 42.313 57.9836Z" fill="#1D1D1B"/>
<path d="M79.2917 57.25C78.4861 57.7222 77.5694 58.0694 76.5417 58.2917C75.4861 58.5417 74.4861 58.6667 73.5417 58.6667C73.3472 58.6667 73.0833 58.6528 72.75 58.625C72.3889 58.625 72.0417 58.5972 71.7083 58.5417C71.375 58.5139 71.0833 58.4583 70.8333 58.375C70.5833 58.2917 70.4583 58.1667 70.4583 58C70.4583 57.9167 70.5 57.8333 70.5833 57.75C70.6389 57.6667 70.7222 57.625 70.8333 57.625C71.3056 57.625 71.7778 57.6667 72.25 57.75C72.6944 57.8611 73.125 57.9167 73.5417 57.9167C74.5417 57.9167 75.4722 57.8056 76.3333 57.5833C77.1944 57.3611 77.9861 57.0694 78.7083 56.7083C77.7083 55.6528 76.9722 54.5139 76.5 53.2917C76.0278 52.0417 75.7917 50.7778 75.7917 49.5C75.7917 48.4722 75.9444 47.4306 76.25 46.375C76.5278 45.3194 76.9444 44.3611 77.5 43.5C78.0556 42.6111 78.75 41.8889 79.5833 41.3333C80.3889 40.7778 81.3194 40.5 82.375 40.5C83.875 40.5833 85.0139 41.0972 85.7917 42.0417C86.5694 42.9583 86.9583 44.0972 86.9583 45.4583C86.9028 47.7083 86.2917 49.8333 85.125 51.8333C83.9583 53.8056 82.2361 55.4722 79.9583 56.8333C81.2917 57.8333 82.7222 58.625 84.25 59.2083C85.8056 59.8194 87.5278 60.125 89.4167 60.125C90.6667 60.125 91.8333 60.0278 92.9167 59.8333C94.0278 59.6389 95.0417 59.3889 95.9583 59.0833C96.875 58.7778 97.7083 58.4167 98.4583 58C99.2083 57.6111 99.8472 57.2222 100.375 56.8333C101.875 55.7222 103.097 54.5 104.042 53.1667C104.986 51.8333 105.722 50.4444 106.25 49C106.778 47.5278 107.139 46 107.333 44.4167C107.556 42.8056 107.708 41.1806 107.792 39.5417C107.875 37.875 107.931 36.1944 107.958 34.5C108.014 32.8056 108.139 31.125 108.333 29.4583C107.083 29.4583 105.903 29.3056 104.792 29C103.708 28.6667 102.722 28.1667 101.833 27.5C101.722 27.4167 101.667 27.3056 101.667 27.1667C101.667 27.0556 101.708 26.9722 101.792 26.9167C101.875 26.8611 101.958 26.8333 102.042 26.8333C102.153 26.8333 102.236 26.8611 102.292 26.9167C103.097 27.5278 104.014 27.9861 105.042 28.2917C106.097 28.5694 107.222 28.7083 108.417 28.7083C108.583 27.2639 108.903 25.6944 109.375 24C109.847 22.3056 110.5 20.7222 111.333 19.25C112.194 17.7778 113.25 16.5556 114.5 15.5833C115.778 14.5833 117.292 14.0833 119.042 14.0833C120.347 14.1389 121.417 14.5278 122.25 15.25C123.111 15.9444 123.542 17.0278 123.542 18.5C123.542 19.5556 123.292 20.5694 122.792 21.5417C122.319 22.5139 121.708 23.4167 120.958 24.25C120.208 25.0556 119.389 25.7778 118.5 26.4167C117.611 27.0278 116.764 27.5139 115.958 27.875C114.903 28.3472 113.778 28.7222 112.583 29C111.417 29.25 110.25 29.4028 109.083 29.4583C108.889 31.125 108.764 32.8056 108.708 34.5C108.681 36.1944 108.625 37.8889 108.542 39.5833C108.486 41.25 108.347 42.9028 108.125 44.5417C107.903 46.1806 107.514 47.7639 106.958 49.2917C106.403 50.7917 105.639 52.2361 104.667 53.625C103.694 55.0139 102.417 56.3056 100.833 57.5C99.6944 58.3333 98.1528 59.0972 96.2083 59.7917C94.2639 60.5139 92 60.875 89.4167 60.875C87.6389 60.875 85.9306 60.5972 84.2917 60.0417C82.6528 59.5139 81.1944 58.7639 79.9167 57.7917L79.2917 57.25ZM77.8333 44.2917C77 46.0139 76.5833 47.7639 76.5833 49.5417C76.5833 50.7917 76.8056 52 77.25 53.1667C77.6944 54.3056 78.4028 55.3611 79.375 56.3333C80.375 55.7222 81.2778 55.0139 82.0833 54.2083C82.9167 53.4028 83.6389 52.5417 84.25 51.625C84.8611 50.6806 85.3333 49.6806 85.6667 48.625C86 47.5694 86.1667 46.5 86.1667 45.4167C86.1667 44.25 85.8194 43.2639 85.125 42.4583C84.4583 41.6528 83.5417 41.25 82.375 41.25C81.2639 41.3611 80.3472 41.6944 79.625 42.25C78.9028 42.7778 78.3056 43.4583 77.8333 44.2917ZM110.75 22.1667C110.333 23.2222 110 24.2917 109.75 25.375C109.5 26.4583 109.306 27.5694 109.167 28.7083C110.611 28.6528 112.125 28.375 113.708 27.875C115.319 27.3472 116.792 26.6389 118.125 25.75C119.458 24.8333 120.556 23.7639 121.417 22.5417C122.278 21.2917 122.708 19.9167 122.708 18.4167C122.708 17.75 122.597 17.1944 122.375 16.75C122.153 16.2778 121.861 15.9028 121.5 15.625C121.167 15.3472 120.778 15.1528 120.333 15.0417C119.889 14.9028 119.458 14.8333 119.042 14.8333C117.958 14.8889 116.986 15.1389 116.125 15.5833C115.264 16 114.486 16.5556 113.792 17.25C113.125 17.9444 112.542 18.7222 112.042 19.5833C111.542 20.4167 111.111 21.2778 110.75 22.1667ZM164.167 17.6667C164.194 17.6944 164.208 17.75 164.208 17.8333C164.208 18.0833 164.083 18.2083 163.833 18.2083C163.667 18.2083 163.556 18.1389 163.5 18C163.306 17.6111 163.014 17.2639 162.625 16.9583C162.264 16.625 161.847 16.3472 161.375 16.125C160.903 15.875 160.403 15.6806 159.875 15.5417C159.347 15.4028 158.833 15.3333 158.333 15.3333C157.361 15.3333 156.431 15.3889 155.542 15.5C154.653 15.5833 153.778 15.7639 152.917 16.0417C152.083 16.3194 151.25 16.6944 150.417 17.1667C149.583 17.6389 148.708 18.25 147.792 19C149.486 19.1389 150.944 19.4028 152.167 19.7917C153.417 20.1528 154.472 20.5972 155.333 21.125C156.222 21.6528 156.931 22.2361 157.458 22.875C158.014 23.5139 158.444 24.1667 158.75 24.8333C159.056 25.4722 159.264 26.1111 159.375 26.75C159.486 27.3889 159.542 27.9583 159.542 28.4583C159.542 29.0139 159.5 29.5278 159.417 30C159.333 30.4444 159.278 30.6944 159.25 30.75C159.194 30.8889 159.069 31.2083 158.875 31.7083C158.681 32.2083 158.347 32.7778 157.875 33.4167C157.403 34.0278 156.75 34.6528 155.917 35.2917C155.111 35.9306 154.056 36.4306 152.75 36.7917C153.917 37.7917 154.875 39 155.625 40.4167C156.375 41.8056 156.75 43.375 156.75 45.125C156.75 46.9028 156.389 48.5833 155.667 50.1667C154.972 51.75 154.028 53.1389 152.833 54.3333C151.639 55.5 150.236 56.4306 148.625 57.125C147.042 57.8194 145.361 58.1667 143.583 58.1667C142.111 58.1667 140.681 58 139.292 57.6667C137.903 57.3333 136.667 56.7917 135.583 56.0417C134.528 55.2917 133.667 54.3194 133 53.125C132.361 51.9306 132.042 50.4861 132.042 48.7917C132.042 48.2639 132.056 47.875 132.083 47.625C132.111 47.375 132.153 47.1944 132.208 47.0833C132.264 46.9722 132.319 46.9167 132.375 46.9167C132.431 46.9167 132.486 46.9167 132.542 46.9167C132.681 46.9167 132.778 46.9583 132.833 47.0417C132.889 47.125 132.917 47.2083 132.917 47.2917C132.917 47.5139 132.889 47.75 132.833 48C132.806 48.2222 132.792 48.4861 132.792 48.7917C132.792 49.5417 132.931 50.4444 133.208 51.5C133.514 52.5556 134.153 53.625 135.125 54.7083C135.625 55.2083 136.208 55.6389 136.875 56C137.542 56.3333 138.25 56.6111 139 56.8333C139.75 57.0278 140.514 57.1667 141.292 57.25C142.097 57.3611 142.861 57.4167 143.583 57.4167C145.028 57.4167 146.486 57.1389 147.958 56.5833C149.431 56 150.764 55.1806 151.958 54.125C153.153 53.0694 154.125 51.7917 154.875 50.2917C155.625 48.7917 156 47.0972 156 45.2083C156 43.5417 155.653 42.0694 154.958 40.7917C154.264 39.4861 153.389 38.3472 152.333 37.375C152.111 37.2083 151.958 37.0694 151.875 36.9583C150.903 37.125 149.917 37.2083 148.917 37.2083C148.611 37.2083 148.125 37.1944 147.458 37.1667C146.819 37.1389 146.167 37.0556 145.5 36.9167C144.833 36.7778 144.236 36.5556 143.708 36.25C143.208 35.9167 142.958 35.4722 142.958 34.9167C142.958 34.3333 143.194 33.8889 143.667 33.5833C144.167 33.2778 144.681 33.125 145.208 33.125C146.236 33.125 147.292 33.375 148.375 33.875C149.458 34.3472 150.681 35.1111 152.042 36.1667C153.431 35.8889 154.542 35.4444 155.375 34.8333C156.236 34.2222 156.889 33.6111 157.333 33C157.806 32.3611 158.111 31.8056 158.25 31.3333C158.417 30.8611 158.514 30.5972 158.542 30.5417C158.625 30.2083 158.681 29.8889 158.708 29.5833C158.764 29.2778 158.792 28.9028 158.792 28.4583C158.792 27.7639 158.667 26.9444 158.417 26C158.167 25.0556 157.625 24.1389 156.792 23.25C155.986 22.3611 154.806 21.5833 153.25 20.9167C151.694 20.25 149.611 19.8333 147 19.6667C145.944 20.6667 144.903 21.8056 143.875 23.0833C142.875 24.3611 141.861 25.75 140.833 27.25C139.833 28.75 138.819 30.3472 137.792 32.0417C136.764 33.7361 135.708 35.5 134.625 37.3333C132.986 40.1111 131.472 42.8056 130.083 45.4167C128.694 48.0278 127.306 50.3472 125.917 52.375C124.528 54.4028 123.056 56.0278 121.5 57.25C119.972 58.4722 118.236 59.0833 116.292 59.0833C115.764 59.0833 115.222 58.9861 114.667 58.7917C114.083 58.5972 113.556 58.3194 113.083 57.9583C112.583 57.625 112.181 57.2361 111.875 56.7917C111.569 56.3194 111.417 55.8194 111.417 55.2917C111.417 55.0417 111.542 54.9167 111.792 54.9167C111.986 54.9167 112.111 55.0139 112.167 55.2083C112.361 56.1528 112.861 56.9028 113.667 57.4583C114.444 58.0417 115.319 58.3333 116.292 58.3333C117.292 58.3333 118.236 58.1389 119.125 57.75C120.014 57.3889 120.861 56.8611 121.667 56.1667C122.694 55.3056 123.792 54 124.958 52.25C126.153 50.5 127.403 48.5139 128.708 46.2917C130.014 44.0694 131.361 41.7083 132.75 39.2083C134.167 36.6806 135.597 34.2083 137.042 31.7917C138.514 29.375 139.986 27.1111 141.458 25C142.958 22.8611 144.458 21.0694 145.958 19.625C143.264 19.625 140.917 20 138.917 20.75C136.917 21.4722 135.222 22.3194 133.833 23.2917C133.111 23.7917 132.375 24.3889 131.625 25.0833C130.875 25.7778 130.25 26.4583 129.75 27.125C129.667 27.2361 129.556 27.2917 129.417 27.2917C129.167 27.2917 129.042 27.1528 129.042 26.875C129.042 26.8472 129.069 26.7778 129.125 26.6667C129.153 26.6667 129.319 26.4722 129.625 26.0833C129.931 25.6944 130.389 25.2222 131 24.6667C131.611 24.0833 132.375 23.4583 133.292 22.7917C134.208 22.0972 135.278 21.4722 136.5 20.9167C137.722 20.3333 139.097 19.8472 140.625 19.4583C142.153 19.0694 143.833 18.875 145.667 18.875C145.833 18.875 146.014 18.875 146.208 18.875C146.431 18.875 146.611 18.8889 146.75 18.9167C149.889 16.0278 153.514 14.5833 157.625 14.5833C158.208 14.5833 158.819 14.6389 159.458 14.75C160.125 14.8333 160.75 15 161.333 15.25C161.944 15.5 162.5 15.8194 163 16.2083C163.5 16.5972 163.889 17.0833 164.167 17.6667ZM149.083 36.4583C149.806 36.4583 150.458 36.4167 151.042 36.3333C149.819 35.5 148.778 34.875 147.917 34.4583C147.083 34.0139 146.194 33.7917 145.25 33.7917C144.889 33.7917 144.542 33.9028 144.208 34.125C143.875 34.3194 143.708 34.5833 143.708 34.9167C143.708 35.9167 145.5 36.4306 149.083 36.4583Z" fill="black"/>
</svg>
